HIERARCHY
ROOT Hips
{
	OFFSET 0.000000 83.214638 0.000000
	CHANNELS 6 Xposition Yposition Zposition Xrotation Yrotation Zrotation
	JOINT Pelvis
	{
		OFFSET 0.000000 0.000000 0.000000
		CHANNELS 3 Xrotation Yrotation Zrotation
		JOINT LeftUpLeg
		{
			OFFSET 8.479700 -4.795502 -0.379100
			CHANNELS 3 Xrotation Yrotation Zrotation
			JOINT LeftLeg
			{
				OFFSET 0.024144 -32.555107 0.112900
				CHANNELS 3 Xrotation Yrotation Zrotation
				JOINT LeftFoot
				{
					OFFSET -0.024144 -32.638630 -3.012600
					CHANNELS 3 Xrotation Yrotation Zrotation
					JOINT LeftToeBase
					{
						OFFSET 0.970200 -13.225400 11.864200
						CHANNELS 3 Xrotation Yrotation Zrotation
						End Site
						{
							OFFSET 0.000000 12.319262 0.000000
						}
					}
					JOINT LFootTongue
					{
						OFFSET 1.142400 -1.059800 6.665200
						CHANNELS 3 Xrotation Yrotation Zrotation
						End Site
						{
							OFFSET 0.000000 12.319262 0.000000
						}
					}
				}
				JOINT LeftPantLeg
				{
					OFFSET 0.918482 -16.533964 -2.284700
					CHANNELS 3 Xrotation Yrotation Zrotation
					End Site
					{
						OFFSET 0.350399 24.744368 0.000000
					}
				}
			}
		}
		JOINT RightUpLeg
		{
			OFFSET -8.479700 -4.795502 -0.379100
			CHANNELS 3 Xrotation Yrotation Zrotation
			JOINT RightLeg
			{
				OFFSET -0.023144 -32.555092 0.112900
				CHANNELS 3 Xrotation Yrotation Zrotation
				JOINT RightFoot
				{
					OFFSET 0.023144 -32.638641 -3.012700
					CHANNELS 3 Xrotation Yrotation Zrotation
					JOINT RightToeBase
					{
						OFFSET -0.970200 -13.225400 11.864200
						CHANNELS 3 Xrotation Yrotation Zrotation
						End Site
						{
							OFFSET 0.000000 12.319244 0.000000
						}
					}
					JOINT RFootTongue
					{
						OFFSET -1.142200 -1.059800 6.665200
						CHANNELS 3 Xrotation Yrotation Zrotation
						End Site
						{
							OFFSET 0.000000 12.319243 0.000000
						}
					}
				}
				JOINT RightPantLeg
				{
					OFFSET -0.919482 -16.533978 -2.284800
					CHANNELS 3 Xrotation Yrotation Zrotation
					End Site
					{
						OFFSET -0.350400 24.744419 0.000000
					}
				}
			}
		}
	}
	JOINT Spine
	{
		OFFSET 0.000000 7.722000 1.166200
		CHANNELS 3 Xrotation Yrotation Zrotation
		JOINT Spine1
		{
			OFFSET 0.000000 12.024101 0.248800
			CHANNELS 3 Xrotation Yrotation Zrotation
			JOINT Spine2
			{
				OFFSET 0.000000 11.502998 -0.491200
				CHANNELS 3 Xrotation Yrotation Zrotation
				JOINT Neck
				{
					OFFSET 0.000000 18.430702 -3.123100
					CHANNELS 3 Xrotation Yrotation Zrotation
					JOINT Head
					{
						OFFSET 0.000000 9.051102 1.034000
						CHANNELS 3 Xrotation Yrotation Zrotation
						JOINT HairB
						{
							OFFSET 0.208400 24.786102 24.822300
							CHANNELS 3 Xrotation Yrotation Zrotation
							End Site
							{
								OFFSET 0.000000 32.263779 0.000000
							}
						}
						JOINT HairA
						{
							OFFSET -7.081100 24.428299 23.196600
							CHANNELS 3 Xrotation Yrotation Zrotation
							End Site
							{
								OFFSET 0.000000 32.263779 0.000000
							}
						}
						JOINT Hat
						{
							OFFSET 16.728800 15.048294 -15.439601
							CHANNELS 3 Xrotation Yrotation Zrotation
							End Site
							{
								OFFSET 0.000000 32.263779 0.000000
							}
						}
					}
				}
				JOINT LeftShoulder
				{
					OFFSET 6.197800 13.665199 -4.064700
					CHANNELS 3 Xrotation Yrotation Zrotation
					JOINT LeftArm
					{
						OFFSET 7.778100 -0.187103 -1.709300
						CHANNELS 3 Xrotation Yrotation Zrotation
						JOINT LeftForeArm
						{
							OFFSET 22.049376 0.000000 0.000000
							CHANNELS 3 Xrotation Yrotation Zrotation
							JOINT LeftHand
							{
								OFFSET 23.009392 0.000000 0.000000
								CHANNELS 3 Xrotation Yrotation Zrotation
								JOINT LeftHandThumb1
								{
									OFFSET 3.507191 -2.063065 3.133727
									CHANNELS 3 Xrotation Yrotation Zrotation
									JOINT LeftHandThumb2
									{
										OFFSET 3.101337 -1.790558 1.790558
										CHANNELS 3 Xrotation Yrotation Zrotation
										JOINT LeftHandThumb3
										{
											OFFSET 3.058640 -1.765907 1.765906
											CHANNELS 3 Xrotation Yrotation Zrotation
											End Site
											{
												OFFSET -0.415260 3.926476 -0.049563
											}
										}
									}
								}
								JOINT LeftHandIndex1
								{
									OFFSET 11.334419 -0.901459 3.706815
									CHANNELS 3 Xrotation Yrotation Zrotation
									JOINT LeftHandIndex2
									{
										OFFSET 3.283112 0.000000 0.000000
										CHANNELS 3 Xrotation Yrotation Zrotation
										JOINT LeftHandIndex3
										{
											OFFSET 3.323853 0.000000 0.000000
											CHANNELS 3 Xrotation Yrotation Zrotation
											End Site
											{
												OFFSET -1.135597 3.097809 0.402452
											}
										}
									}
								}
								JOINT LeftHandMiddle1
								{
									OFFSET 11.335861 0.000000 0.000000
									CHANNELS 3 Xrotation Yrotation Zrotation
									JOINT LeftHandMiddle2
									{
										OFFSET 3.410492 0.000000 0.000000
										CHANNELS 3 Xrotation Yrotation Zrotation
										JOINT LeftHandMiddle3
										{
											OFFSET 3.312172 0.000000 0.000000
											CHANNELS 3 Xrotation Yrotation Zrotation
											End Site
											{
												OFFSET -1.150200 3.080154 0.400270
											}
										}
									}
								}
								JOINT LeftHandRing1
								{
									OFFSET 11.514786 -0.013176 -3.003090
									CHANNELS 3 Xrotation Yrotation Zrotation
									JOINT LeftHandRing2
									{
										OFFSET 3.053307 0.000000 0.000000
										CHANNELS 3 Xrotation Yrotation Zrotation
										JOINT LeftHandRing3
										{
											OFFSET 3.295807 0.000000 0.000000
											CHANNELS 3 Xrotation Yrotation Zrotation
											End Site
											{
												OFFSET -1.281006 3.013344 0.375733
											}
										}
									}
								}
								JOINT LeftHandPinky1
								{
									OFFSET 10.518692 -0.960396 -5.730441
									CHANNELS 3 Xrotation Yrotation Zrotation
									JOINT LeftHandPinky2
									{
										OFFSET 2.861649 0.000000 0.000000
										CHANNELS 3 Xrotation Yrotation Zrotation
										JOINT LeftHandPinky3
										{
											OFFSET 2.863380 0.000000 0.000000
											CHANNELS 3 Xrotation Yrotation Zrotation
											End Site
											{
												OFFSET -0.843597 2.711159 0.369971
											}
										}
									}
								}
							}
							JOINT LSleeve
							{
								OFFSET 6.676277 -0.344902 -1.011730
								CHANNELS 3 Xrotation Yrotation Zrotation
								End Site
								{
									OFFSET 0.000000 14.885353 0.000000
								}
							}
						}
					}
				}
				JOINT RightShoulder
				{
					OFFSET -6.197800 13.665199 -4.064700
					CHANNELS 3 Xrotation Yrotation Zrotation
					JOINT RightArm
					{
						OFFSET -7.778100 -0.187103 -1.709300
						CHANNELS 3 Xrotation Yrotation Zrotation
						JOINT RightForeArm
						{
							OFFSET -22.049376 0.000000 0.000000
							CHANNELS 3 Xrotation Yrotation Zrotation
							JOINT RightHand
							{
								OFFSET -23.009392 0.000000 0.000000
								CHANNELS 3 Xrotation Yrotation Zrotation
								JOINT RightHandThumb1
								{
									OFFSET -3.507191 -2.063065 3.133727
									CHANNELS 3 Xrotation Yrotation Zrotation
									JOINT RightHandThumb2
									{
										OFFSET -3.101337 -1.790558 1.790558
										CHANNELS 3 Xrotation Yrotation Zrotation
										JOINT RightHandThumb3
										{
											OFFSET -3.058640 -1.765907 1.765906
											CHANNELS 3 Xrotation Yrotation Zrotation
											End Site
											{
												OFFSET 0.415260 3.926476 -0.049563
											}
										}
									}
								}
								JOINT RightHandIndex1
								{
									OFFSET -11.334419 -0.901459 3.706815
									CHANNELS 3 Xrotation Yrotation Zrotation
									JOINT RightHandIndex2
									{
										OFFSET -3.283112 0.000000 0.000000
										CHANNELS 3 Xrotation Yrotation Zrotation
										JOINT RightHandIndex3
										{
											OFFSET -3.323853 0.000000 0.000000
											CHANNELS 3 Xrotation Yrotation Zrotation
											End Site
											{
												OFFSET 1.135597 3.097809 0.402452
											}
										}
									}
								}
								JOINT RightHandMiddle1
								{
									OFFSET -11.335861 0.000000 0.000000
									CHANNELS 3 Xrotation Yrotation Zrotation
									JOINT RightHandMiddle2
									{
										OFFSET -3.410492 0.000000 0.000000
										CHANNELS 3 Xrotation Yrotation Zrotation
										JOINT RightHandMiddle3
										{
											OFFSET -3.312172 0.000000 0.000000
											CHANNELS 3 Xrotation Yrotation Zrotation
											End Site
											{
												OFFSET 1.150200 3.080154 0.400270
											}
										}
									}
								}
								JOINT RightHandRing1
								{
									OFFSET -11.514786 -0.013176 -3.003090
									CHANNELS 3 Xrotation Yrotation Zrotation
									JOINT RightHandRing2
									{
										OFFSET -3.053307 0.000000 0.000000
										CHANNELS 3 Xrotation Yrotation Zrotation
										JOINT RightHandRing3
										{
											OFFSET -3.295807 0.000000 0.000000
											CHANNELS 3 Xrotation Yrotation Zrotation
											End Site
											{
												OFFSET 1.281006 3.013344 0.375733
											}
										}
									}
								}
								JOINT RightHandPinky1
								{
									OFFSET -10.518692 -0.960396 -5.730441
									CHANNELS 3 Xrotation Yrotation Zrotation
									JOINT RightHandPinky2
									{
										OFFSET -2.861649 0.000000 0.000000
										CHANNELS 3 Xrotation Yrotation Zrotation
										JOINT RightHandPinky3
										{
											OFFSET -2.863380 0.000000 0.000000
											CHANNELS 3 Xrotation Yrotation Zrotation
											End Site
											{
												OFFSET 0.843597 2.711159 0.369971
											}
										}
									}
								}
							}
							JOINT RSleeve
							{
								OFFSET -6.676277 -0.344902 -1.011730
								CHANNELS 3 Xrotation Yrotation Zrotation
								End Site
								{
									OFFSET 0.000000 14.885353 0.000000
								}
							}
						}
					}
				}
				JOINT Backpack
				{
					OFFSET 0.000000 -2.471497 36.677502
					CHANNELS 3 Xrotation Yrotation Zrotation
					End Site
					{
						OFFSET 0.000000 20.427315 0.000000
					}
				}
				JOINT Hood
				{
					OFFSET 0.000000 18.754097 -10.431000
					CHANNELS 3 Xrotation Yrotation Zrotation
					JOINT Hood1
					{
						OFFSET 0.000000 -5.011002 -7.685901
						CHANNELS 3 Xrotation Yrotation Zrotation
						End Site
						{
							OFFSET 0.000000 9.175140 0.000000
						}
					}
				}
				JOINT LHoodieString
				{
					OFFSET 5.250500 16.397697 3.089900
					CHANNELS 3 Xrotation Yrotation Zrotation
					JOINT LHoodieString1
					{
						OFFSET 0.257700 -6.364304 3.694600
						CHANNELS 3 Xrotation Yrotation Zrotation
						JOINT LHoodieString2
						{
							OFFSET 0.000000 -9.643799 2.679100
							CHANNELS 3 Xrotation Yrotation Zrotation
							End Site
							{
								OFFSET 0.000000 10.009018 0.000000
							}
						}
					}
				}
				JOINT RHoodieString
				{
					OFFSET -5.250500 16.397697 3.089900
					CHANNELS 3 Xrotation Yrotation Zrotation
					JOINT RHoodieString1
					{
						OFFSET -0.257700 -6.364304 3.694600
						CHANNELS 3 Xrotation Yrotation Zrotation
						JOINT RHoodieString2
						{
							OFFSET 0.000000 -9.643799 2.679100
							CHANNELS 3 Xrotation Yrotation Zrotation
							End Site
							{
								OFFSET 0.000000 10.009018 0.000000
							}
						}
					}
				}
			}
			JOINT LBackpack_Strap
			{
				OFFSET 15.223200 -7.719803 -6.610900
				CHANNELS 3 Xrotation Yrotation Zrotation
				End Site
				{
					OFFSET 0.000000 16.040596 0.000000
				}
			}
			JOINT RBackpack_Strap
			{
				OFFSET -15.223000 -7.719803 -6.610900
				CHANNELS 3 Xrotation Yrotation Zrotation
				End Site
				{
					OFFSET 0.000000 16.040596 0.000000
				}
			}
		}
	}
	JOINT BoyFacialAnim_Joint
	{
		OFFSET 1.000000 -82.208099 -1.550900
		CHANNELS 3 Xrotation Yrotation Zrotation
		End Site
		{
			OFFSET 0.000000 30.012791 0.000000
		}
	}
}
MOTION
Frames: 5
Frame Time: 0.033333
-12.474725 73.397057 -124.355408 6.614631 5.805711 3.132787 -0.000000 0.000001 -0.000000 -66.531623 -9.539039 18.761807 84.358642 0.101389 -2.641061 11.347301 -13.914527 14.355555 0.000000 -0.000001 -0.000001 0.000000 -0.000001 -0.000001 0.000003 0.000001 0.000000 -13.449853 10.622753 -19.598634 50.242807 7.623304 2.201408 -24.442722 -18.469311 12.972764 0.000001 0.000000 0.000000 0.000001 0.000000 0.000000 -0.000003 -0.000001 0.000000 6.119756 5.502989 -0.157526 12.516206 10.206629 -2.241164 12.516206 10.206639 -2.241163 -17.378125 -10.841182 -8.411671 -14.793261 -15.768344 5.191520 0.000001 0.000000 0.000000 0.000001 0.000000 0.000000 0.000001 0.000000 0.000000 10.631791 1.322420 -7.573827 20.706408 -29.196777 -41.704001 -0.218015 -44.130907 0.009181 -12.108493 0.604463 26.158530 -2.571978 -21.416873 -10.611901 13.282171 -5.935406 5.818930 0.000000 0.000001 0.000002 13.210328 -0.525488 26.352885 -0.090154 0.083041 -0.009765 0.000002 0.000002 0.000002 -1.734763 14.036671 13.719025 -0.116272 0.054433 -5.122769 0.000004 0.000000 0.000002 0.845588 13.095527 -11.002332 -0.081690 -2.693325 -21.693722 -0.000001 -0.000000 -0.000002 4.990295 30.911210 -31.527303 -0.793714 -6.096832 -28.609907 -0.000000 0.000002 0.000000 0.000001 0.000001 0.000001 -4.803521 16.875393 -1.412252 -48.030375 26.897826 66.510033 0.311184 72.566068 -0.303934 35.677391 -10.358638 -3.072757 0.063544 31.769737 16.289042 2.060433 1.416644 -2.743081 0.000003 0.000000 -0.000001 21.364135 13.157247 -26.377572 -0.040458 -0.270858 0.026799 0.000001 -0.000001 0.000003 -1.162053 -0.127678 -5.948367 -0.277321 0.872376 22.733270 -0.000000 0.000001 -0.000000 -0.306973 -12.958138 22.349069 -0.649976 3.135305 25.107441 -0.000003 0.000002 -0.000001 0.172966 -25.407873 39.174468 -0.329781 5.340785 14.128364 -0.000003 -0.000000 -0.000002 0.000001 -0.000000 0.000001 -0.000001 -0.000003 0.000001 -0.000001 -0.000003 0.000001 -0.000001 -0.000003 0.000001 -0.000001 -0.000003 0.000001 -0.000001 -0.000003 -0.000000 -0.000001 -0.000001 -0.000002 -0.000001 -0.000003 0.000001 -0.000001 -0.000003 -0.000000 -0.000001 -0.000001 -0.000002 0.000002 0.000002 -0.000000 0.000002 0.000002 -0.000000 -0.000000 0.000001 -0.000000 
-12.506770 71.715645 -130.285263 8.986955 8.296015 2.783302 0.000001 -0.000000 -0.000000 -60.903199 -18.474586 18.962217 86.698562 1.508379 -2.620650 14.066420 -18.591857 16.692170 -0.000001 0.000001 -0.000000 -0.000001 0.000001 -0.000000 -0.000001 0.000001 0.000000 -20.604232 11.668607 -21.048355 54.287891 7.464196 2.352775 -29.912035 -16.556536 13.786122 0.000001 -0.000000 -0.000000 0.000001 -0.000000 -0.000000 -0.000001 0.000000 -0.000000 6.851838 4.212928 -0.252710 13.914373 7.648019 -2.383035 13.914352 7.648005 -2.383030 -19.157979 -10.331802 -10.987440 -18.208330 -16.737087 6.446892 0.000000 0.000000 -0.000000 0.000000 0.000000 -0.000000 0.000000 0.000000 -0.000000 9.650974 -6.043771 -13.660652 9.079262 -13.995655 -36.270114 -0.074811 -58.169026 0.091022 2.980552 5.516579 23.293245 3.486641 -16.285410 -11.011076 10.608373 -5.015405 4.974024 0.000000 -0.000000 0.000002 12.382306 -2.605631 19.169699 -0.085983 0.255244 -0.030755 -0.000002 -0.000000 -0.000004 -0.610381 12.742653 8.103406 -0.133717 -0.387362 -10.779475 0.000000 -0.000001 -0.000002 1.407196 13.378511 -14.109972 -0.758190 -3.640084 -33.891440 0.000000 0.000001 -0.000000 2.349259 25.735386 -30.920499 -1.094377 -6.331062 -31.463799 -0.000000 0.000001 -0.000000 0.000001 -0.000000 0.000000 -5.899497 14.337814 3.582095 -35.095739 21.259430 69.082466 0.210878 73.680351 -0.227499 44.358220 -6.009341 0.807952 1.337578 29.781387 16.727360 -2.002048 -0.478293 -2.808918 -0.000001 -0.000000 0.000001 19.598296 12.979200 -22.424872 -0.035633 -0.379457 0.037703 -0.000001 -0.000001 0.000003 -1.463845 -1.764580 -3.034590 -0.304589 0.968308 24.421362 0.000001 0.000002 0.000002 0.456192 -12.682029 26.884945 -0.972191 3.667394 30.575540 -0.000001 -0.000000 0.000004 1.364902 -23.670698 44.652727 -0.956494 6.372672 20.285862 0.000000 0.000001 0.000000 -0.000000 -0.000000 -0.000002 -0.000001 -0.000001 -0.000000 -0.000001 -0.000001 -0.000000 -0.000001 -0.000001 -0.000000 -0.000001 -0.000001 -0.000000 -0.000001 -0.000001 -0.000000 -0.000001 -0.000001 0.000001 -0.000001 -0.000001 -0.000000 -0.000001 -0.000001 -0.000000 -0.000001 -0.000001 0.000001 -0.000002 0.000001 -0.000000 -0.000002 0.000001 -0.000000 0.000001 -0.000000 -0.000000 
-11.876319 70.830200 -135.942459 11.639762 11.502833 1.627794 0.000001 0.000000 -0.000000 -50.557088 -24.260858 18.693895 79.668897 2.758735 -2.451193 11.815298 -19.998724 10.830704 0.000001 -0.000001 -0.000000 0.000001 -0.000001 -0.000000 0.000007 -0.000000 0.000001 -28.635742 12.624432 -22.450116 57.731211 6.833729 2.438954 -27.769615 -15.417902 16.998908 -0.000000 0.000000 -0.000000 -0.000000 0.000000 -0.000000 0.000002 0.000000 -0.000003 7.490330 2.356673 0.043348 15.056614 4.180324 -1.274562 15.056618 4.180333 -1.274563 -22.031303 -8.592013 -13.570652 -20.287113 -16.619022 7.434679 0.000000 -0.000000 -0.000000 0.000000 -0.000000 -0.000000 0.000000 -0.000000 -0.000000 8.573486 -10.985158 -17.647889 -4.293333 -4.668233 -31.600137 0.095068 -66.904804 0.220942 11.825902 7.349288 16.378334 5.213208 -13.483331 -10.886139 9.542462 -4.627242 4.658353 -0.000000 0.000002 0.000002 12.118879 -4.278815 15.893717 -0.062059 0.499031 -1.580811 -0.000002 0.000005 -0.000004 -0.354405 11.580651 7.815743 -0.278181 -1.184201 -21.152041 0.000002 -0.000003 -0.000004 1.904052 13.518411 -16.291432 -1.784044 -4.536806 -48.204364 -0.000000 -0.000001 -0.000001 0.148615 22.563574 -28.815861 -1.504765 -6.614314 -35.199042 0.000001 0.000001 0.000003 0.000001 0.000003 0.000002 -5.948201 10.425551 6.291561 -25.018971 14.097411 68.964161 0.059956 68.530976 -0.125623 42.263360 -8.295468 2.772711 3.980517 28.168369 17.538601 -6.252988 -2.613840 -3.078259 -0.000003 0.000001 -0.000001 17.043661 13.296999 -15.758641 -0.026313 -0.501657 0.370626 -0.000003 0.000006 0.000006 -1.636260 -3.315506 2.015436 -0.341729 1.084535 26.487388 0.000000 0.000002 0.000000 1.070480 -12.409470 30.637240 -1.372819 4.201413 36.448423 0.000002 0.000000 0.000002 2.526338 -22.524991 49.112526 -1.706532 7.348538 26.577630 0.000000 -0.000001 -0.000000 0.000001 -0.000002 -0.000004 -0.000000 0.000000 -0.000001 -0.000000 0.000000 -0.000001 -0.000000 0.000000 -0.000001 -0.000000 0.000000 -0.000001 -0.000000 0.000000 -0.000001 -0.000002 -0.000001 0.000001 -0.000000 0.000000 -0.000001 -0.000000 0.000000 -0.000001 -0.000002 -0.000001 0.000001 0.000000 0.000001 -0.000000 0.000000 0.000001 -0.000000 0.000001 0.000000 -0.000000 
-10.817485 70.646530 -141.192917 15.208202 14.991015 -0.116391 -0.000001 -0.000001 0.000000 -40.000689 -24.086858 20.280152 64.996948 3.737542 -2.078557 2.088103 -14.635668 -1.003097 0.000001 0.000000 -0.000001 0.000001 0.000000 -0.000001 -0.000003 -0.000000 -0.000002 -36.279325 13.091115 -24.459689 58.622141 6.001535 2.426230 -21.494518 -14.425774 20.545592 0.000001 -0.000000 0.000000 0.000001 -0.000000 0.000000 -0.000001 -0.000000 0.000000 7.979947 0.050968 0.395072 15.959990 -0.006152 0.490191 15.959973 -0.006160 0.490196 -26.755304 -5.673058 -13.639967 -20.729361 -14.331714 7.653225 -0.000000 -0.000000 -0.000000 -0.000000 -0.000000 -0.000000 -0.000000 -0.000000 -0.000000 8.031358 -13.172805 -19.064453 -16.649230 1.335203 -26.866312 0.319217 -73.659478 0.417244 17.948593 7.293217 9.267046 6.268223 -12.492799 -11.081403 8.172654 -4.107029 4.255339 0.000002 0.000001 -0.000001 11.246370 -4.706201 11.384073 -0.040592 0.542272 -3.845224 -0.000001 -0.000005 -0.000001 0.038234 12.440223 4.146011 -0.360210 -1.448643 -24.694824 0.000002 -0.000000 -0.000001 2.958219 13.345878 -21.816504 -2.192755 -4.786654 -53.230188 -0.000003 0.000000 -0.000004 1.398953 21.969587 -33.039001 -1.936028 -6.872026 -38.963630 0.000003 -0.000000 0.000001 0.000002 -0.000001 -0.000001 -4.949641 5.537443 5.751724 -22.894902 6.384559 70.436626 -0.067318 58.354609 -0.058720 33.261382 -14.770410 -1.578444 7.330486 26.591996 18.335667 -9.079547 -4.120440 -3.344287 0.000003 -0.000000 -0.000001 15.190498 13.930424 -10.435463 -0.019995 -0.528296 1.041214 0.000001 -0.000001 0.000003 -1.644466 -3.620589 3.963862 -0.367187 1.156549 27.782296 0.000001 0.000000 -0.000002 1.246825 -12.457211 31.377599 -1.649570 4.512590 40.112676 -0.000002 0.000003 0.000003 3.360342 -22.812000 50.279266 -2.165363 7.850299 30.057033 0.000003 -0.000001 -0.000002 0.000001 -0.000001 -0.000000 -0.000002 0.000000 0.000000 -0.000002 0.000000 0.000000 -0.000002 0.000000 0.000000 -0.000002 0.000000 0.000000 -0.000002 0.000000 0.000001 0.000002 0.000000 -0.000000 -0.000002 0.000000 0.000000 -0.000002 0.000000 0.000001 0.000002 0.000000 -0.000000 0.000005 0.000000 0.000001 0.000005 0.000000 0.000001 -0.000001 -0.000001 0.000000 
-9.210033 70.838081 -146.193436 19.406044 17.407968 -2.276518 -0.000001 -0.000001 0.000000 -34.429382 -18.583302 22.631907 50.146214 5.249736 -1.554099 -13.874110 -7.676130 -12.480685 -0.000000 0.000000 -0.000002 -0.000000 0.000000 -0.000002 -0.000002 0.000003 0.000000 -41.887699 14.190091 -26.604002 55.748803 5.190385 2.304675 -14.342284 -13.573194 23.520013 0.000000 -0.000000 0.000000 0.000000 -0.000000 0.000000 0.000002 -0.000000 -0.000000 8.423329 -2.067528 0.583729 16.901612 -3.814530 1.859496 16.901590 -3.814528 1.859495 -32.849569 -2.907964 -9.899891 -20.355171 -10.533669 7.441511 0.000000 0.000000 -0.000000 0.000000 0.000000 -0.000000 0.000000 0.000000 -0.000000 8.031467 -13.365277 -18.925331 -28.220776 5.298503 -20.779899 0.611231 -78.377534 0.691747 26.380721 4.345982 4.127356 8.320378 -11.595835 -11.661994 5.840901 -3.160419 3.597224 0.000001 -0.000000 -0.000002 10.224908 -4.677144 6.174977 -0.008196 0.600535 -6.970714 0.000002 -0.000000 -0.000002 0.655484 12.757707 -0.209701 -0.401456 -1.563267 -26.253710 -0.000001 -0.000001 -0.000003 3.441917 12.055318 -26.767576 -2.417576 -4.903853 -55.891691 0.000004 0.000000 -0.000000 2.626942 21.167972 -37.552988 -2.399291 -7.108398 -42.862210 0.000001 0.000002 0.000002 -0.000001 0.000001 -0.000001 -4.161453 2.419345 4.410302 -26.590446 -1.182709 70.256562 -0.155072 47.105510 -0.030730 23.075401 -17.088377 -12.289977 9.958591 26.373145 19.159280 -11.274240 -9.179962 -4.150760 -0.000004 0.000001 -0.000002 13.790017 14.328473 -6.248117 -0.014906 -0.548762 1.557877 0.000003 -0.000004 0.000003 -1.639052 -3.707212 5.298517 -0.386238 1.207232 28.700482 0.000000 0.000000 0.000003 1.482837 -12.491029 32.401717 -1.968654 4.826655 44.053795 0.000000 -0.000002 0.000004 4.150518 -22.957982 51.567795 -2.624713 8.296492 33.336569 0.000003 0.000001 -0.000003 -0.000000 -0.000001 0.000002 0.000001 0.000000 -0.000000 0.000001 0.000000 -0.000000 0.000001 0.000000 -0.000000 0.000001 0.000000 -0.000000 0.000001 0.000000 -0.000000 0.000001 0.000000 -0.000000 0.000001 0.000000 -0.000000 0.000001 0.000000 -0.000000 0.000001 0.000000 -0.000000 -0.000002 0.000000 0.000000 -0.000002 0.000000 0.000000 -0.000001 -0.000001 0.000000 
